<svg shape-rendering="geometricPrecision" viewBox="183 150 696 580" version="1.1" xmlns="http://www.w3.org/2000/svg">
<defs>
  <linearGradient id="brand-gradient" gradientUnits="userSpaceOnUse"
      x1="193" y1="179" x2="868" y2="718">
    <stop offset="0%"   stop-color="rgb(195,155,255)" />
    <stop offset="28%"  stop-color="rgb(158,98,255)" />
    <stop offset="48%"  stop-color="rgb(72,28,185)" />
    <stop offset="72%"  stop-color="rgb(100,118,255)" />
    <stop offset="100%" stop-color="rgb(103,157,254)" />
  </linearGradient>
</defs><path fill="url(#brand-gradient)" stroke="none" stroke-width="1" opacity="1" d="M 522.5 179 L 528.5 179 L 529.5 180 L 536.5 180 L 537.5 181 L 540.5 181 L 541.5 182 L 543.5 182 Q 544 183.5 546.5 183 L 547.5 184 L 548.5 184 L 549.5 185 L 550.5 185 L 551.5 186 L 552.5 186 Q 552.75 187.25 554.5 187 L 556.5 189 L 557.5 189 L 559.5 191 L 560.5 191 L 565.5 196 L 566.5 196 L 568 197.5 L 568 198.5 L 573 203.5 L 573 204.5 L 577 209.5 L 577 210.5 L 578 211.5 L 578 212.5 Q 579.25 212.75 579 214.5 L 581 216.5 L 581 217.5 L 582 218.5 L 582 219.5 Q 583.25 219.75 583 221.5 L 585 223.5 L 585 224.5 L 586 225.5 L 586 226.5 L 587 227.5 L 587 228.5 Q 588.25 228.75 588 230.5 L 590 232.5 L 590 233.5 Q 591.25 233.75 591 235.5 L 593 237.5 L 593 238.5 L 594 239.5 L 594 240.5 Q 595.25 240.75 595 242.5 L 597 244.5 L 597 245.5 L 598 246.5 L 598 247.5 Q 599.25 247.75 599 249.5 L 601 251.5 L 601 252.5 L 602 253.5 L 602 254.5 Q 603.25 254.75 603 256.5 L 605 258.5 L 605 259.5 L 606 260.5 L 606 261.5 Q 607.25 261.75 607 263.5 L 609 265.5 L 609 266.5 L 610 267.5 L 610 268.5 Q 611.25 268.75 611 270.5 L 613 272.5 L 613 273.5 L 614 274.5 L 614 275.5 Q 615.25 275.75 615 277.5 L 617 279.5 L 617 280.5 L 618 281.5 L 618 282.5 Q 619.25 282.75 619 284.5 L 621 286.5 L 621 287.5 L 622 288.5 L 622 289.5 L 623 290.5 L 623 291.5 Q 624.25 291.75 624 293.5 L 626 295.5 L 626 296.5 L 627 297.5 L 627 298.5 Q 628.25 298.75 628 300.5 L 630 302.5 L 630 303.5 L 631 304.5 L 631 305.5 L 632 306.5 L 632 307.5 Q 633.25 307.75 633 309.5 L 635 311.5 L 635 312.5 L 636 313.5 L 636 314.5 L 637 315.5 L 637 316.5 Q 638.25 316.75 638 318.5 L 640 320.5 L 640 321.5 L 641 322.5 L 641 323.5 Q 642.25 323.75 642 325.5 L 644 327.5 L 644 328.5 L 645 329.5 L 645 330.5 L 646 331.5 L 646 332.5 Q 647.25 332.75 647 334.5 L 649 336.5 L 649 337.5 L 650 338.5 L 650 339.5 L 651 340.5 L 651 341.5 Q 652.25 341.75 652 343.5 L 654 345.5 L 654 346.5 L 655 347.5 L 655 348.5 Q 656.25 348.75 656 350.5 L 658 352.5 L 658 353.5 L 659 354.5 L 659 355.5 L 660 356.5 L 660 357.5 L 661 358.5 L 661 359.5 L 662 360.5 L 662 361.5 L 663 362.5 L 663 363.5 L 664 364.5 L 664 365.5 L 666 368.5 L 666 370.5 L 667 371.5 L 667 373.5 L 669 376.5 L 669 379.5 L 670 380.5 Q 669.5 383 671 383.5 L 671 387.5 L 672 388.5 L 672 393.5 L 673 394.5 L 673 427.5 L 672 428.5 L 672 434.5 L 671 435.5 L 671 439.5 L 670 440.5 L 670 443.5 Q 668.25 444.25 669 447.5 L 668 448.5 L 668 450.5 L 667 451.5 L 667 453.5 L 666 454.5 L 666 456.5 Q 664.5 457 665 459.5 L 664 460.5 L 664 461.5 L 663 462.5 L 663 463.5 L 662 464.5 L 662 465.5 L 661 466.5 L 661 467.5 L 660 468.5 L 660 469.5 L 659 470.5 L 659 471.5 L 658 472.5 L 658 473.5 L 657 474.5 L 657 475.5 Q 655.75 475.75 656 477.5 L 654 479.5 L 654 480.5 L 653 481.5 L 653 482.5 L 652 483.5 L 652 484.5 L 651 485.5 L 651 486.5 Q 649.75 486.75 650 488.5 L 648 490.5 L 648 491.5 L 647 492.5 L 647 493.5 Q 645.75 493.75 646 495.5 L 644 497.5 L 644 498.5 L 643 499.5 L 643 500.5 Q 641.75 500.75 642 502.5 L 638.5 506 L 634.5 506 L 631 502.5 L 631 501.5 L 629 499.5 L 629 498.5 Q 627.75 498.25 628 496.5 L 626 494.5 L 626 493.5 Q 624.75 493.25 625 491.5 L 623 489.5 L 623 488.5 L 622 487.5 L 622 486.5 Q 620.75 486.25 621 484.5 L 619 482.5 L 619 481.5 Q 617.75 481.25 618 479.5 L 616 477.5 L 616 476.5 Q 614.75 476.25 615 474.5 L 613 472.5 L 613 471.5 Q 611.75 471.25 612 469.5 L 610 467.5 L 610 466.5 L 609 465.5 L 609 464.5 Q 607.75 464.25 608 462.5 L 606 460.5 L 606 459.5 Q 604.75 459.25 605 457.5 L 603 455.5 L 603 454.5 Q 601.75 454.25 602 452.5 L 600 450.5 L 600 449.5 Q 598.75 449.25 599 447.5 L 597 445.5 L 597 444.5 L 596 443.5 L 596 442.5 Q 594.75 442.25 595 440.5 L 593 438.5 L 593 437.5 L 592 436.5 L 592 435.5 Q 590.75 435.25 591 433.5 L 589 431.5 L 589 430.5 Q 587.75 430.25 588 428.5 L 586 426.5 L 586 425.5 L 585 424.5 L 585 423.5 Q 583.75 423.25 584 421.5 L 582 419.5 L 582 418.5 Q 580.75 418.25 581 416.5 L 579 414.5 L 579 413.5 L 578 412.5 L 578 411.5 Q 576.75 411.25 577 409.5 L 575 407.5 L 575 406.5 Q 573.75 406.25 574 404.5 L 570 399.5 L 570 398.5 L 569 397.5 L 569 396.5 Q 567.75 396.25 568 394.5 L 566 392.5 L 566 391.5 Q 564.75 391.25 565 389.5 L 563 387.5 L 563 386.5 L 562 385.5 L 562 384.5 Q 560.75 384.25 561 382.5 L 559 380.5 L 559 379.5 Q 557.75 379.25 558 377.5 L 556 375.5 L 556 374.5 L 555 373.5 L 555 372.5 Q 553.75 372.25 554 370.5 L 552 368.5 L 552 367.5 Q 550.75 367.25 551 365.5 L 549 363.5 L 549 362.5 Q 547.75 362.25 548 360.5 L 546 358.5 L 546 357.5 L 545 356.5 L 545 355.5 Q 543.75 355.25 544 353.5 L 540 348.5 L 540 347.5 L 539 346.5 L 539 345.5 Q 537.75 345.25 538 343.5 L 536 341.5 L 536 340.5 Q 534.75 340.25 535 338.5 L 533 336.5 L 533 335.5 L 532 334.5 L 532 333.5 Q 530.75 333.25 531 331.5 L 529 329.5 L 529 328.5 L 525.5 325 L 523.5 325 L 520 328.5 L 520 329.5 L 518 331.5 L 518 332.5 L 517 333.5 L 517 334.5 Q 515.75 334.75 516 336.5 L 514 338.5 L 514 339.5 L 513 340.5 L 513 341.5 Q 511.75 341.75 512 343.5 L 510 345.5 L 510 346.5 Q 508.75 346.75 509 348.5 L 507 350.5 L 507 351.5 L 506 352.5 L 506 353.5 Q 504.75 353.75 505 355.5 L 503 357.5 L 503 358.5 L 502 359.5 L 502 360.5 Q 500.75 360.75 501 362.5 L 499 364.5 L 499 365.5 Q 497.75 365.75 498 367.5 L 496 369.5 L 496 370.5 L 495 371.5 L 495 372.5 L 494 373.5 L 494 374.5 Q 492.75 374.75 493 376.5 L 491 378.5 L 491 379.5 L 490 380.5 L 490 381.5 Q 488.75 381.75 489 383.5 L 487 385.5 L 487 386.5 L 486 387.5 L 486 388.5 Q 484.75 388.75 485 390.5 L 483 392.5 L 483 393.5 Q 481.75 393.75 482 395.5 L 480 397.5 L 480 398.5 L 479 399.5 L 479 400.5 L 478 401.5 L 478 402.5 Q 476.75 402.75 477 404.5 L 475 406.5 L 475 407.5 L 474 408.5 L 474 409.5 Q 472.75 409.75 473 411.5 L 471 413.5 L 471 414.5 L 470 415.5 L 470 416.5 Q 468.75 416.75 469 418.5 L 467 420.5 L 467 421.5 L 466 422.5 L 466 423.5 L 465 424.5 L 465 425.5 Q 463.75 425.75 464 427.5 L 462 429.5 L 462 430.5 Q 460.75 430.75 461 432.5 L 459 434.5 L 459 435.5 L 458 436.5 L 458 437.5 Q 456.75 437.75 457 439.5 L 455 441.5 L 455 442.5 L 454 443.5 L 454 444.5 Q 452.75 444.75 453 446.5 L 451 448.5 L 451 449.5 L 450 450.5 L 450 451.5 L 449 452.5 L 449 453.5 Q 447.75 453.75 448 455.5 L 446 457.5 L 446 458.5 L 445 459.5 L 445 460.5 Q 443.75 460.75 444 462.5 L 442 464.5 L 442 465.5 L 441 466.5 L 441 467.5 Q 439.75 467.75 440 469.5 L 438 471.5 L 438 472.5 L 437 473.5 L 437 474.5 L 436 475.5 L 436 476.5 Q 434.75 476.75 435 478.5 L 433 480.5 L 433 481.5 Q 431.75 481.75 432 483.5 L 430 485.5 L 430 486.5 L 429 487.5 L 429 488.5 L 428 489.5 L 428 490.5 Q 426.75 490.75 427 492.5 L 425 494.5 L 425 495.5 L 424 496.5 L 424 497.5 Q 422.75 497.75 423 499.5 L 421 501.5 L 421 502.5 L 420 503.5 L 420 504.5 Q 418.75 504.75 419 506.5 L 417 508.5 L 417 509.5 L 415 512.5 L 415 513.5 Q 413.75 513.75 414 515.5 L 412 517.5 L 412 518.5 L 411 519.5 L 411 520.5 L 410 521.5 L 410 522.5 Q 408.75 522.75 409 524.5 L 407 526.5 L 407 527.5 L 406 528.5 L 406 529.5 L 405 530.5 L 405 531.5 Q 403.75 531.75 404 533.5 L 402 535.5 L 402 536.5 L 401 537.5 L 401 538.5 L 400 539.5 L 400 540.5 Q 398.75 540.75 399 542.5 L 397 544.5 L 397 545.5 L 396 546.5 L 396 547.5 L 395 548.5 L 395 549.5 L 394 550.5 L 394 551.5 Q 392.75 551.75 393 553.5 L 391 555.5 L 391 556.5 L 390 557.5 L 390 558.5 Q 388.75 558.75 389 560.5 L 387 562.5 L 387 563.5 L 386 564.5 L 386 565.5 L 385 566.5 L 385 567.5 L 384 568.5 L 384 569.5 Q 382.75 569.75 383 571.5 L 381 573.5 L 381 574.5 L 380 575.5 L 380 576.5 Q 378.75 576.75 379 578.5 L 377 580.5 L 377 581.5 L 376 582.5 L 376 583.5 L 375 584.5 L 375 585.5 L 374 586.5 L 374 587.5 Q 372.75 587.75 373 589.5 L 371 591.5 L 371 592.5 L 370 593.5 L 370 594.5 L 369 595.5 L 369 596.5 Q 367.75 596.75 368 598.5 L 366 600.5 L 366 601.5 L 365 602.5 L 365 603.5 L 364 604.5 L 364 605.5 Q 362.75 605.75 363 607.5 L 361 609.5 L 361 610.5 L 360 611.5 L 360 612.5 L 359 613.5 L 359 614.5 Q 357.75 614.75 358 616.5 L 356 618.5 L 356 619.5 L 355 620.5 L 355 621.5 L 354 622.5 L 354 623.5 L 353 624.5 L 353 625.5 Q 351.75 625.75 352 627.5 L 350 629.5 L 350 630.5 L 349 631.5 L 349 632.5 L 348 633.5 L 348 634.5 Q 346.75 634.75 347 636.5 L 345 638.5 L 345 639.5 L 344 640.5 L 344 641.5 L 343 642.5 L 343 643.5 L 342 644.5 L 342 645.5 Q 340.75 645.75 341 647.5 L 339 649.5 L 339 650.5 L 338 651.5 L 338 652.5 L 337 653.5 L 337 654.5 L 336 655.5 L 336 656.5 Q 334.75 656.75 335 658.5 L 333 660.5 L 333 661.5 L 332 662.5 L 332 663.5 L 331 664.5 L 331 665.5 Q 329.75 665.75 330 667.5 L 328 669.5 L 328 670.5 L 327 671.5 L 327 672.5 L 326 673.5 L 326 674.5 L 325 675.5 L 325 676.5 Q 323.75 676.75 324 678.5 L 322 680.5 L 322 681.5 Q 320.75 681.75 321 683.5 L 319 685.5 L 319 686.5 Q 317.75 686.75 318 688.5 L 315 691.5 L 315 692.5 L 302.5 705 L 301.5 705 L 299.5 707 L 298.5 707 L 293.5 711 L 292.5 711 L 291.5 712 L 290.5 712 L 287.5 714 L 285.5 714 L 284.5 715 L 282.5 715 L 281.5 716 Q 279 715.5 278.5 717 L 274.5 717 L 273.5 718 L 261.5 718 L 260.5 719 L 206.5 719 Q 205.5 717 204.5 719 Q 201.25 719.75 200.5 718 L 196.5 718 L 194 715.5 Q 194.25 713.75 193 713.5 L 194 712.5 L 194 711.5 L 195 710.5 L 195 709.5 L 196 708.5 L 196 707.5 L 197 706.5 L 197 705.5 Q 198.25 705.25 198 703.5 L 200 701.5 L 200 700.5 L 201 699.5 L 201 698.5 Q 202.25 698.25 202 696.5 L 204 694.5 L 204 693.5 L 205 692.5 L 205 691.5 L 206 690.5 L 206 689.5 Q 207.25 689.25 207 687.5 L 209 685.5 L 209 684.5 L 210 683.5 L 210 682.5 Q 211.25 682.25 211 680.5 L 213 678.5 L 213 677.5 L 214 676.5 L 214 675.5 L 215 674.5 L 215 673.5 L 216 672.5 L 216 671.5 Q 217.25 671.25 217 669.5 L 219 667.5 L 219 666.5 L 220 665.5 L 220 664.5 L 221 663.5 L 221 662.5 Q 222.25 662.25 222 660.5 L 224 658.5 L 224 657.5 L 225 656.5 L 225 655.5 Q 226.25 655.25 226 653.5 L 228 651.5 L 228 650.5 L 229 649.5 L 229 648.5 L 230 647.5 L 230 646.5 Q 231.25 646.25 231 644.5 L 233 642.5 L 233 641.5 L 234 640.5 L 234 639.5 L 235 638.5 L 235 637.5 Q 236.25 637.25 236 635.5 L 238 633.5 L 238 632.5 L 239 631.5 L 239 630.5 L 240 629.5 L 240 628.5 Q 241.25 628.25 241 626.5 L 243 624.5 L 243 623.5 L 244 622.5 L 244 621.5 L 245 620.5 L 245 619.5 Q 246.25 619.25 246 617.5 L 248 615.5 L 248 614.5 L 249 613.5 L 249 612.5 L 250 611.5 L 250 610.5 Q 251.25 610.25 251 608.5 L 253 606.5 L 253 605.5 L 254 604.5 L 254 603.5 Q 255.25 603.25 255 601.5 L 257 599.5 L 257 598.5 L 258 597.5 L 258 596.5 L 259 595.5 L 259 594.5 Q 260.25 594.25 260 592.5 L 262 590.5 L 262 589.5 L 263 588.5 L 263 587.5 Q 264.25 587.25 264 585.5 L 266 583.5 L 266 582.5 L 267 581.5 L 267 580.5 L 268 579.5 L 268 578.5 Q 269.25 578.25 269 576.5 L 271 574.5 L 271 573.5 L 272 572.5 L 272 571.5 L 273 570.5 L 273 569.5 Q 274.25 569.25 274 567.5 L 276 565.5 L 276 564.5 L 277 563.5 L 277 562.5 L 278 561.5 L 278 560.5 Q 279.25 560.25 279 558.5 L 281 556.5 L 281 555.5 L 282 554.5 L 282 553.5 L 283 552.5 L 283 551.5 Q 284.25 551.25 284 549.5 L 286 547.5 L 286 546.5 L 287 545.5 L 287 544.5 L 288 543.5 L 288 542.5 Q 289.25 542.25 289 540.5 L 291 538.5 L 291 537.5 L 292 536.5 L 292 535.5 L 293 534.5 L 293 533.5 Q 294.25 533.25 294 531.5 L 296 529.5 L 296 528.5 L 297 527.5 L 297 526.5 Q 298.25 526.25 298 524.5 L 300 522.5 L 300 521.5 L 301 520.5 L 301 519.5 L 302 518.5 L 302 517.5 Q 303.25 517.25 303 515.5 L 305 513.5 L 305 512.5 L 306 511.5 L 306 510.5 Q 307.25 510.25 307 508.5 L 309 506.5 L 309 505.5 L 310 504.5 L 310 503.5 L 311 502.5 L 311 501.5 L 312 500.5 L 312 499.5 Q 313.25 499.25 313 497.5 L 315 495.5 L 315 494.5 Q 316.25 494.25 316 492.5 L 318 490.5 L 318 489.5 L 319 488.5 L 319 487.5 L 320 486.5 L 320 485.5 L 321 484.5 L 321 483.5 Q 322.25 483.25 322 481.5 L 324 479.5 L 324 478.5 L 325 477.5 L 325 476.5 Q 326.25 476.25 326 474.5 L 328 472.5 L 328 471.5 L 329 470.5 L 329 469.5 L 330 468.5 L 330 467.5 Q 331.25 467.25 331 465.5 L 333 463.5 L 333 462.5 L 334 461.5 L 334 460.5 Q 335.25 460.25 335 458.5 L 337 456.5 L 337 455.5 Q 338.25 455.25 338 453.5 L 340 451.5 L 340 450.5 L 341 449.5 L 341 448.5 L 342 447.5 L 342 446.5 Q 343.25 446.25 343 444.5 L 345 442.5 L 345 441.5 L 346 440.5 L 346 439.5 L 347 438.5 L 347 437.5 Q 348.25 437.25 348 435.5 L 350 433.5 L 350 432.5 L 351 431.5 L 351 430.5 Q 352.25 430.25 352 428.5 L 354 426.5 L 354 425.5 L 355 424.5 L 355 423.5 L 356 422.5 L 356 421.5 Q 357.25 421.25 357 419.5 L 359 417.5 L 359 416.5 L 360 415.5 L 360 414.5 Q 361.25 414.25 361 412.5 L 363 410.5 L 363 409.5 L 364 408.5 L 364 407.5 L 365 406.5 L 365 405.5 Q 366.25 405.25 366 403.5 L 368 401.5 L 368 400.5 L 369 399.5 L 369 398.5 L 370 397.5 L 370 396.5 Q 371.25 396.25 371 394.5 L 373 392.5 L 373 391.5 L 374 390.5 L 374 389.5 Q 375.25 389.25 375 387.5 L 377 385.5 L 377 384.5 L 378 383.5 L 378 382.5 Q 379.25 382.25 379 380.5 L 381 378.5 L 381 377.5 L 382 376.5 L 382 375.5 Q 383.25 375.25 383 373.5 L 385 371.5 L 385 370.5 L 386 369.5 L 386 368.5 Q 387.25 368.25 387 366.5 L 389 364.5 L 389 363.5 L 390 362.5 L 390 361.5 Q 391.25 361.25 391 359.5 L 393 357.5 L 393 356.5 L 394 355.5 L 394 354.5 Q 395.25 354.25 395 352.5 L 397 350.5 L 397 349.5 L 398 348.5 L 398 347.5 Q 399.25 347.25 399 345.5 L 401 343.5 L 401 342.5 L 402 341.5 L 402 340.5 Q 403.25 340.25 403 338.5 L 405 336.5 L 405 335.5 L 406 334.5 L 406 333.5 Q 407.25 333.25 407 331.5 L 409 329.5 L 409 328.5 L 410 327.5 L 410 326.5 Q 411.25 326.25 411 324.5 L 413 322.5 L 413 321.5 L 414 320.5 L 414 319.5 L 415 318.5 L 415 317.5 Q 416.25 317.25 416 315.5 L 418 313.5 L 418 312.5 L 419 311.5 L 419 310.5 Q 420.25 310.25 420 308.5 L 422 306.5 L 422 305.5 L 423 304.5 L 423 303.5 Q 424.25 303.25 424 301.5 L 426 299.5 L 426 298.5 Q 427.25 298.25 427 296.5 L 429 294.5 L 429 293.5 L 430 292.5 L 430 291.5 L 431 290.5 L 431 289.5 Q 432.25 289.25 432 287.5 L 434 285.5 L 434 284.5 Q 435.25 284.25 435 282.5 L 437 280.5 L 437 279.5 L 438 278.5 L 438 277.5 L 439 276.5 L 439 275.5 Q 440.25 275.25 440 273.5 L 442 271.5 L 442 270.5 Q 443.25 270.25 443 268.5 L 445 266.5 L 445 265.5 L 446 264.5 L 446 263.5 Q 447.25 263.25 447 261.5 L 449 259.5 L 449 258.5 L 451 255.5 L 451 254.5 L 453 252.5 L 453 251.5 Q 454.25 251.25 454 249.5 L 456 247.5 L 456 246.5 L 457 245.5 L 457 244.5 Q 458.25 244.25 458 242.5 L 460 240.5 L 460 239.5 L 461 238.5 L 461 237.5 Q 462.25 237.25 462 235.5 L 464 233.5 L 464 232.5 L 465 231.5 L 465 230.5 Q 466.25 230.25 466 228.5 L 468 226.5 L 468 225.5 L 469 224.5 L 469 223.5 Q 470.25 223.25 470 221.5 L 472 219.5 L 472 218.5 L 473 217.5 L 473 216.5 Q 474.25 216.25 474 214.5 L 476 212.5 L 476 211.5 Q 477.25 211.25 477 209.5 L 479 207.5 L 479 206.5 Q 480.25 206.25 480 204.5 L 482 202.5 L 482 201.5 L 488 195.5 L 488 194 L 489.5 194 L 494.5 189 L 495.5 189 L 497.5 187 L 498.5 187 L 499.5 186 L 500.5 186 L 501.5 185 L 502.5 185 L 505.5 183 L 507.5 183 L 508.5 182 Q 511 182.5 511.5 181 L 514.5 181 L 515.5 180 L 521.5 180 L 522.5 179 Z " /><path fill="url(#brand-gradient)" stroke="none" stroke-width="1" opacity="1" d="M 418.5 561 L 743.5 561 L 744.5 562 L 750.5 562 L 751.5 563 L 754.5 563 Q 755.25 564.75 758.5 564 L 761.5 566 L 763.5 566 L 764.5 567 L 765.5 567 L 766.5 568 L 767.5 568 L 768.5 569 L 769.5 569 L 770.5 570 L 771.5 570 L 772.5 571 L 773.5 571 Q 773.75 572.25 775.5 572 L 777.5 574 L 778.5 574 L 781.5 577 L 782.5 577 L 793 587.5 L 793 588.5 L 796 591.5 L 796 592.5 L 798 594.5 L 798 595.5 L 802 600.5 L 802 601.5 Q 803.25 601.75 803 603.5 L 805 605.5 L 805 606.5 Q 806.25 606.75 806 608.5 L 808 610.5 L 808 611.5 Q 809.25 611.75 809 613.5 L 811 615.5 L 811 616.5 L 812 617.5 L 812 618.5 Q 813.25 618.75 813 620.5 L 817 625.5 L 817 626.5 L 818 627.5 L 818 628.5 Q 819.25 628.75 819 630.5 L 823 635.5 L 823 636.5 Q 824.25 636.75 824 638.5 L 826 640.5 L 826 641.5 L 827 642.5 L 827 643.5 Q 828.25 643.75 828 645.5 L 830 647.5 L 830 648.5 Q 831.25 648.75 831 650.5 L 833 652.5 L 833 653.5 Q 834.25 653.75 834 655.5 L 836 657.5 L 836 658.5 Q 837.25 658.75 837 660.5 L 841 665.5 L 841 666.5 Q 842.25 666.75 842 668.5 L 844 670.5 L 844 671.5 Q 845.25 671.75 845 673.5 L 847 675.5 L 847 676.5 Q 848.25 676.75 848 678.5 L 850 680.5 L 850 681.5 L 851 682.5 L 851 683.5 Q 852.25 683.75 852 685.5 L 854 687.5 L 854 688.5 Q 855.25 688.75 855 690.5 L 857 692.5 L 857 693.5 Q 858.25 693.75 858 695.5 L 860 697.5 L 860 698.5 L 861 699.5 L 861 700.5 Q 862.25 700.75 862 702.5 L 866 707.5 L 866 708.5 L 867 709.5 L 867 710.5 L 869 713.5 L 869 715.5 L 868 716.5 L 868 718 L 867.5 718 L 852.5 718 L 851.5 719 L 831.5 719 Q 830.5 717 829.5 719 L 816.5 719 Q 816 717.5 813.5 718 L 812.5 719 L 808.5 719 L 807.5 718 L 792.5 718 L 791.5 717 L 787.5 717 Q 786.75 715.25 783.5 716 L 782.5 715 L 780.5 715 L 779.5 714 L 778.5 714 L 775.5 712 L 773.5 712 L 771.5 710 L 770.5 710 L 769.5 709 L 768.5 709 Q 768.25 707.75 766.5 708 L 764.5 706 L 763.5 706 L 760.5 703 L 759.5 703 L 749 692.5 L 749 691.5 L 747 689.5 L 747 688.5 L 743 683.5 L 743 682.5 Q 741.75 682.25 742 680.5 L 740 678.5 L 740 677.5 L 738 675.5 L 738 674.5 L 735 671.5 L 735 670.5 L 730.5 666 L 729.5 666 L 727.5 664 L 726.5 664 L 725.5 663 L 724.5 663 L 723.5 662 L 722.5 662 L 719.5 660 Q 717 660.5 716.5 659 L 713.5 659 L 712.5 658 L 506.5 658 L 505.5 657 L 499.5 657 L 498.5 656 L 495.5 656 Q 494.75 654.25 491.5 655 L 490.5 654 L 488.5 654 Q 488 652.5 485.5 653 L 484.5 652 L 483.5 652 L 482.5 651 L 481.5 651 L 480.5 650 L 479.5 650 L 478.5 649 L 477.5 649 L 476.5 648 L 475.5 648 Q 475.25 646.75 473.5 647 L 471.5 645 L 470.5 645 L 468.5 643 L 467.5 643 L 464.5 640 L 463.5 640 L 451 627.5 L 451 626.5 L 448 623.5 L 448 622.5 L 446 620.5 L 446 619.5 Q 444.75 619.25 445 617.5 L 443 615.5 L 443 614.5 Q 441.75 614.25 442 612.5 L 440 610.5 L 440 609.5 Q 438.75 609.25 439 607.5 L 437 605.5 L 437 604.5 Q 435.75 604.25 436 602.5 L 434 600.5 L 434 599.5 Q 432.75 599.25 433 597.5 L 431 595.5 L 431 594.5 Q 429.75 594.25 430 592.5 L 428 590.5 L 428 589.5 L 427 588.5 L 427 587.5 Q 425.75 587.25 426 585.5 L 424 583.5 L 424 582.5 Q 422.75 582.25 423 580.5 L 421 578.5 L 421 577.5 Q 419.75 577.25 420 575.5 L 418 573.5 L 418 572.5 L 417 571.5 L 417 570.5 L 415 567.5 L 415 565.5 Q 416.25 565.25 416 563.5 L 418.5 561 Z " /></svg>
